# xmcd
#
# Track frame offsets: 
#        150
#        13767
#        31903
#        56264
#        74910
#        94056
#        105846
#        129270
#        146481
#        162645
#        182561
#        195081
#        209645
#
# Disc length: 3140 seconds
#
# Revision: 0
# Processed by: cddbd v1.5.2PL0 Copyright (c) Steve Scherf et al.
# Submitted via: ExactAudioCopy v1.0b1
#
DISCID=af0c420d
DTITLE=Berryblues - Ecoutez moi ce blues
DYEAR=2011
DGENRE=Blues
TTITLE0=Ecoutez moi ce blues
TTITLE1=10h00 du mat
TTITLE2=Jojo le routier
TTITLE3=Le ptit blues qui fait du bien
TTITLE4=Dans ma cuisine
TTITLE5=Je reste là
TTITLE6=Le prochain train
TTITLE7=Mon père me disait
TTITLE8=Je deviens fou
TTITLE9=Hey baby
TTITLE10=Seul devant son verre
TTITLE11=Road Runner
TTITLE12=Hey ma Suzy
EXTD=
EXTT0=
EXTT1=
EXTT2=
EXTT3=
EXTT4=
EXTT5=
EXTT6=
EXTT7=
EXTT8=
EXTT9=
EXTT10=
EXTT11=
EXTT12=
PLAYORDER=
